<svg xmlns="http://www.w3.org/2000/svg" viewBox="0 0 483 63" width="483" height="63" role="img" aria-label="single server">
  <style>
    .lockup { fill: #000; }
    @media (prefers-color-scheme: dark) {
      .lockup { fill: #fff; }
    }
  </style>
  <g class="lockup">
    <g transform="translate(0, 13.04) scale(0.14421)">
      <path d="M69.8 23.3v23.3h372.4c12.8 0 23.2 10.4 23.3 23.3V163c0 12.8-10.4 23.2-23.3 23.3H69.8c-12.8 0-23.2-10.4-23.3-23.3V69.9C46.6 57 57 46.6 69.8 46.5zV0C31.2 0 0 31.2 0 69.8v93.1c0 38.6 31.2 69.8 69.8 69.8h372.4c38.6 0 69.8-31.3 69.8-69.8V69.8C512 31.2 480.8 0 442.2 0H69.8z"/>
      <rect x="111.7" y="104.7" width="186.2" height="23.3" rx="11.6"/>
      <circle cx="395.6" cy="116.4" r="23.3"/>
    </g>
    <path d="M107.50 48.59Q101.29 48.59 97.32 45.90Q93.35 43.22 92.52 38.22L99.95 36.30Q100.39 38.54 101.45 39.82Q102.51 41.10 104.07 41.65Q105.64 42.19 107.50 42.19Q110.31 42.19 111.66 41.20Q113 40.21 113 38.74Q113 37.26 111.72 36.46Q110.44 35.66 107.63 35.15L105.83 34.83Q102.51 34.19 99.75 33.07Q97 31.95 95.34 29.97Q93.67 27.98 93.67 24.85Q93.67 20.11 97.13 17.58Q100.59 15.06 106.22 15.06Q111.53 15.06 115.05 17.42Q118.57 19.79 119.66 23.63L112.17 25.94Q111.66 23.50 110.09 22.48Q108.52 21.46 106.22 21.46Q103.91 21.46 102.70 22.26Q101.48 23.06 101.48 24.46Q101.48 26 102.76 26.74Q104.04 27.47 106.22 27.86L108.01 28.18Q111.59 28.82 114.51 29.87Q117.42 30.93 119.11 32.88Q120.81 34.83 120.81 38.16Q120.81 43.15 117.19 45.87Q113.58 48.59 107.50 48.59M135.91 47.70L127.85 47.70L127.85 15.95L135.91 15.95L135.91 47.70M131.88 12.24Q129.71 12.24 128.20 10.83Q126.70 9.42 126.70 7.12Q126.70 4.82 128.20 3.41Q129.71 2 131.88 2Q134.12 2 135.59 3.41Q137.07 4.82 137.07 7.12Q137.07 9.42 135.59 10.83Q134.12 12.24 131.88 12.24M152.94 47.70L144.87 47.70L144.87 15.95L152.81 15.95L152.81 20.11L153.96 20.11Q154.73 18.45 156.84 16.94Q158.95 15.44 163.24 15.44Q166.95 15.44 169.74 17.14Q172.52 18.83 174.06 21.81Q175.59 24.78 175.59 28.75L175.59 47.70L167.53 47.70L167.53 29.39Q167.53 25.81 165.77 24.02Q164.01 22.22 160.75 22.22Q157.03 22.22 154.99 24.69Q152.94 27.15 152.94 31.57L152.94 47.70M182.76 31.95L182.76 30.93Q182.76 25.94 184.75 22.38Q186.73 18.83 190.03 16.94Q193.32 15.06 197.23 15.06Q201.58 15.06 203.82 16.59Q206.06 18.13 207.08 19.79L208.23 19.79L208.23 15.95L216.17 15.95L216.17 53.33Q216.17 56.59 214.25 58.54Q212.33 60.50 209.13 60.50L187.88 60.50L187.88 53.46L206.31 53.46Q208.11 53.46 208.11 51.54L208.11 43.28L206.95 43.28Q206.31 44.30 205.16 45.36Q204.01 46.42 202.09 47.12Q200.17 47.82 197.23 47.82Q193.32 47.82 190.03 45.94Q186.73 44.05 184.75 40.50Q182.76 36.94 182.76 31.95M199.53 40.78Q203.24 40.78 205.74 38.42Q208.23 36.05 208.23 31.76L208.23 31.12Q208.23 26.77 205.77 24.43Q203.31 22.10 199.53 22.10Q195.82 22.10 193.32 24.43Q190.83 26.77 190.83 31.12L190.83 31.76Q190.83 36.05 193.32 38.42Q195.82 40.78 199.53 40.78M233.19 47.70L225.13 47.70L225.13 2.90L233.19 2.90L233.19 47.70M256.62 48.59Q251.88 48.59 248.27 46.58Q244.65 44.56 242.63 40.88Q240.62 37.20 240.62 32.21L240.62 31.44Q240.62 26.45 242.60 22.77Q244.59 19.09 248.17 17.07Q251.75 15.06 256.49 15.06Q261.16 15.06 264.62 17.14Q268.07 19.22 269.99 22.90Q271.91 26.58 271.91 31.44L271.91 34.19L248.81 34.19Q248.94 37.46 251.24 39.50Q253.55 41.55 256.87 41.55Q260.27 41.55 261.87 40.08Q263.47 38.61 264.30 36.82L270.89 40.27Q269.99 41.94 268.30 43.89Q266.60 45.84 263.79 47.22Q260.97 48.59 256.62 48.59M248.87 28.18L263.72 28.18Q263.47 25.42 261.51 23.76Q259.56 22.10 256.43 22.10Q253.16 22.10 251.24 23.76Q249.32 25.42 248.87 28.18M308.52 48.59Q302.31 48.59 298.35 45.90Q294.38 43.22 293.55 38.22L300.97 36.30Q301.42 38.54 302.47 39.82Q303.53 41.10 305.10 41.65Q306.67 42.19 308.52 42.19Q311.34 42.19 312.68 41.20Q314.03 40.21 314.03 38.74Q314.03 37.26 312.75 36.46Q311.47 35.66 308.65 35.15L306.86 34.83Q303.53 34.19 300.78 33.07Q298.03 31.95 296.36 29.97Q294.70 27.98 294.70 24.85Q294.70 20.11 298.15 17.58Q301.61 15.06 307.24 15.06Q312.55 15.06 316.07 17.42Q319.59 19.79 320.68 23.63L313.19 25.94Q312.68 23.50 311.11 22.48Q309.55 21.46 307.24 21.46Q304.94 21.46 303.72 22.26Q302.51 23.06 302.51 24.46Q302.51 26 303.79 26.74Q305.07 27.47 307.24 27.86L309.03 28.18Q312.62 28.82 315.53 29.87Q318.44 30.93 320.14 32.88Q321.83 34.83 321.83 38.16Q321.83 43.15 318.22 45.87Q314.60 48.59 308.52 48.59M343.34 48.59Q338.60 48.59 334.99 46.58Q331.37 44.56 329.35 40.88Q327.34 37.20 327.34 32.21L327.34 31.44Q327.34 26.45 329.32 22.77Q331.31 19.09 334.89 17.07Q338.47 15.06 343.21 15.06Q347.88 15.06 351.34 17.14Q354.79 19.22 356.71 22.90Q358.63 26.58 358.63 31.44L358.63 34.19L335.53 34.19Q335.66 37.46 337.96 39.50Q340.27 41.55 343.59 41.55Q346.99 41.55 348.59 40.08Q350.19 38.61 351.02 36.82L357.61 40.27Q356.71 41.94 355.02 43.89Q353.32 45.84 350.51 47.22Q347.69 48.59 343.34 48.59M335.59 28.18L350.44 28.18Q350.19 25.42 348.23 23.76Q346.28 22.10 343.15 22.10Q339.88 22.10 337.96 23.76Q336.04 25.42 335.59 28.18M373.87 47.70L365.80 47.70L365.80 15.95L373.74 15.95L373.74 19.54L374.89 19.54Q375.59 17.62 377.23 16.72Q378.86 15.82 381.03 15.82L384.87 15.82L384.87 22.99L380.91 22.99Q377.83 22.99 375.85 24.62Q373.87 26.26 373.87 29.65L373.87 47.70M410.60 47.70L397.80 47.70L387.69 15.95L396.27 15.95L403.63 41.81L404.78 41.81L412.14 15.95L420.71 15.95L410.60 47.70M439.79 48.59Q435.05 48.59 431.43 46.58Q427.82 44.56 425.80 40.88Q423.79 37.20 423.79 32.21L423.79 31.44Q423.79 26.45 425.77 22.77Q427.75 19.09 431.34 17.07Q434.92 15.06 439.66 15.06Q444.33 15.06 447.79 17.14Q451.24 19.22 453.16 22.90Q455.08 26.58 455.08 31.44L455.08 34.19L431.98 34.19Q432.11 37.46 434.41 39.50Q436.71 41.55 440.04 41.55Q443.43 41.55 445.03 40.08Q446.63 38.61 447.47 36.82L454.06 40.27Q453.16 41.94 451.47 43.89Q449.77 45.84 446.95 47.22Q444.14 48.59 439.79 48.59M432.04 28.18L446.89 28.18Q446.63 25.42 444.68 23.76Q442.73 22.10 439.59 22.10Q436.33 22.10 434.41 23.76Q432.49 25.42 432.04 28.18M470.31 47.70L462.25 47.70L462.25 15.95L470.19 15.95L470.19 19.54L471.34 19.54Q472.04 17.62 473.67 16.72Q475.31 15.82 477.48 15.82L481.32 15.82L481.32 22.99L477.35 22.99Q474.28 22.99 472.30 24.62Q470.31 26.26 470.31 29.65"/>
  </g>
</svg>
